Coordinates
version=1
nRows=5
nColumns=40
inDegrees=yes

Units are S.I. units (second, meters, Newtons, ...)
Angles are in degrees.

endheader
time	pelvis_tilt	pelvis_list	pelvis_rotation	pelvis_tx	pelvis_ty	pelvis_tz	hip_flexion_r	hip_adduction_r	hip_rotation_r	knee_angle_r	knee_angle_r_beta	ankle_angle_r	subtalar_angle_r	mtp_angle_r	hip_flexion_l	hip_adduction_l	hip_rotation_l	knee_angle_l	knee_angle_l_beta	ankle_angle_l	subtalar_angle_l	mtp_angle_l	lumbar_extension	lumbar_bending	lumbar_rotation	arm_flex_r	arm_add_r	arm_rot_r	elbow_flex_r	pro_sup_r	wrist_flex_r	wrist_dev_r	arm_flex_l	arm_add_l	arm_rot_l	elbow_flex_l	pro_sup_l	wrist_flex_l	wrist_dev_l
      0.00000000	     -1.24048825	     -4.02917140	      5.46435323	     -1.53476846	      0.89914490	     -1.44691545	     17.49549035	      4.73927944	    -21.39169889	    -18.12547884	     -0.31634928	     -0.49737356	     -1.59876069	     -0.95546957	     -6.92622119	      6.62202057	     17.78597773	    -31.30268099	     -0.54633485	     -1.19625041	     -4.05173851	     -2.20768347	     -4.97368572	      9.11616311	     -2.76040250	      4.15499439	     -9.08835661	     19.41856760	     10.40156834	     89.95437384	      0.00000000	      0.00000000	      7.19786969	      8.94782110	     -8.41184237	     24.05222271	     89.95437384	      0.00000000	      0.00000000
      0.01000000	     -1.16293890	     -3.77433114	      5.31931289	     -1.52788773	      0.89968477	     -1.44653287	     16.91777691	      4.55732592	    -21.35992479	    -18.21701397	     -0.31794687	     -0.02459930	     -1.44842914	     -1.03861036	     -6.27540017	      6.65785353	     17.35543779	    -33.09830732	     -0.57767444	     -2.65647114	     -3.52602882	     -2.00607531	     -5.14636169	      8.80974461	     -2.56867145	      4.42215709	     -9.17993209	     19.42378033	     10.44588956	     89.95437384	      0.00000000	      0.00000000	      6.97057163	      8.86464777	     -8.55607324	     23.66685784	     89.95437384	      0.00000000	      0.00000000
      0.02000000	     -1.09751679	     -3.80548672	      5.39941573	     -1.52089259	      0.90000239	     -1.44606895	     16.35385839	      4.65351096	    -21.39767978	    -18.29440649	     -0.31929763	      0.64674372	     -1.17662891	     -1.18341275	     -5.40541200	      7.16532003	     16.93350440	    -35.10885426	     -0.61276510	     -4.64021634	     -2.92831339	     -1.75513362	     -5.19800511	      8.79329492	     -2.61841486	      4.70388537	     -9.23162764	     19.40526083	     10.51127304	     89.95437384	      0.00000000	      0.00000000	      6.74222647	      8.81006140	     -8.83615612	     23.16363647	     89.95437384	      0.00000000	      0.00000000
      0.03000000	     -1.24491672	     -4.20034612	      5.49932886	     -1.51391031	      0.89984408	     -1.44546962	     15.99365102	      5.10574239	    -21.84830691	    -18.20616980	     -0.31775761	      1.27118729	     -0.54152732	     -1.43267803	     -4.13830219	      8.12295754	     16.52317977	    -37.23681500	     -0.64990502	     -6.97711996	     -2.63451817	     -1.59120702	     -4.93609319	      9.15821022	     -2.68782282	      4.90542680	     -9.34985821	     19.37536196	     10.61372356	     89.95437384	      0.00000000	      0.00000000	      6.45634073	      8.75113882	     -9.39215249	     22.65398832	     89.95437384	      0.00000000	      0.00000000
      0.04000000	     -1.16654132	     -4.27988073	      5.47882703	     -1.50718066	      0.89995764	     -1.44499401	     15.46583549	      5.24308677	    -21.95774646	    -18.33468726	     -0.32000066	      1.83062914	     -0.13749498	     -1.61894662	     -3.13469782	      8.63495571	     16.04310940	    -39.27449891	     -0.68546932	     -8.93015187	     -2.27908491	     -1.47888381	     -5.04959051	      9.19567955	     -2.64591915	      5.24437141	     -9.46669291	     19.28083154	     10.78693393	     89.95437384	      0.00000000	      0.00000000	      6.24006073	      8.70311169	     -9.78046554	     22.21957695	     89.95437384	      0.00000000	      0.00000000
